<svg viewBox="0 0 70 80" className="logo-default" fill="none"
    xmlns="http://www.w3.org/2000/svg">
    <defs id="SvgjsG1007"></defs>
    <g id="SvgjsG1007" featurekey="symbolFeature-0" transform="matrix(1.3072129344415984,0,0,1.3072129344415984,-17.329417648081293,-14.379342278857582)" fill="#58d5d3">
        <g xmlns="http://www.w3.org/2000/svg">
            <defs>
                <rect id="a" width="80" height="80"></rect>
            </defs>
            <clipPath id="b">
                <use xmlns:xlink="http://www.w3.org/1999/xlink" xlink:href="#a" overflow="visible">
                </use>
            </clipPath>
            <path d="M64,11H16c-1.7,0-3,1.4-2.7,3.1l6.4,44.1c0.2,1.4,1.3,3,2.6,3.6L37.8,70c1.3,0.7,3.2,0.7,4.5,0l15.5-8.1   c1.3-0.7,2.4-2.2,2.6-3.6l6.4-44.1C66.9,12.4,65.7,11,64,11 M58.3,57.9c-0.1,0.8-0.8,1.8-1.5,2.2l-15.5,8.1c-0.7,0.4-1.9,0.4-2.6,0   L23.2,60c-0.7-0.4-1.4-1.4-1.5-2.2l-6.4-44.1C15.2,13.3,15.5,13,16,13h48c0.5,0,0.8,0.4,0.7,0.8L58.3,57.9z" style="clip-path: url(#b);"></path>
            <path d="M32.7,28.3c-0.4-0.4-1-0.4-1.4,0l-8,8c-0.4,0.4-0.4,1,0,1.4l8,8c0.4,0.4,1,0.4,1.4,0c0.4-0.4,0.4-1,0-1.4   L25.4,37l7.3-7.3C33.1,29.3,33.1,28.7,32.7,28.3" style="clip-path: url(#b);"></path>
            <path d="M48.7,28.3c-0.4-0.4-1-0.4-1.4,0c-0.4,0.4-0.4,1,0,1.4l7.3,7.3l-7.3,7.3c-0.4,0.4-0.4,1,0,1.4   c0.4,0.4,1,0.4,1.4,0l8-8c0.4-0.4,0.4-1,0-1.4L48.7,28.3z" style="clip-path: url(#b);"></path>
            <path d="M45.4,26.1c-0.5-0.2-1.1,0-1.3,0.4l-10,20c-0.2,0.5,0,1.1,0.4,1.3c0.5,0.2,1.1,0,1.3-0.4l10-20   C46.1,27,45.9,26.4,45.4,26.1" style="clip-path: url(#b);"></path>
        </g>
    </g>
</svg>